<svg width="800" height="182" viewBox="0 0 800 182" fill="none" xmlns="http://www.w3.org/2000/svg">
<path d="M270.296 2H336.536C364.184 2 379.736 16.976 379.736 39.248C379.736 51.92 373.592 60.944 362.456 65.936V66.704C375.704 71.888 384.344 82.448 384.344 98.96C384.344 123.728 368.024 139.088 339.224 139.088H270.296V2ZM299.096 58.832H330.968C344.024 58.832 350.936 52.304 350.936 41.552C350.936 30.8 344.024 24.464 330.968 24.464H299.096V58.832ZM299.096 116.432H333.464C347.672 116.432 354.968 109.328 354.968 97.808C354.968 86.096 347.672 78.992 333.464 78.992H299.096V116.432Z" fill="black"/>
<path d="M512.853 2V88.592C512.853 124.688 487.509 142.16 454.293 142.16C421.077 142.16 395.733 124.688 395.733 88.592V2H424.533V85.904C424.533 109.136 435.285 118.736 454.293 118.736C473.493 118.736 484.053 109.136 484.053 85.904V2H512.853Z" fill="black"/>
<path d="M671.345 2V139.088H644.273V37.712H643.505L609.905 139.088H588.593L555.185 37.712H554.417V139.088H527.921V2H570.161L599.345 96.464H600.113L629.297 2H671.345Z" fill="black"/>
<path d="M686.358 2L750.102 2.192C781.59 2.192 799.446 19.088 799.446 46.352C799.446 73.808 781.59 90.704 750.102 90.704H715.158V139.088H686.358V2ZM715.158 67.856H745.302C761.622 67.856 770.262 59.792 770.262 46.352C770.262 32.912 761.622 24.848 745.302 24.848H715.158V67.856Z" fill="black"/>
<path d="M144.601 1C173.4 1.00018 189.601 16.5999 189.601 39.7998C189.601 52.9996 183.2 62.3996 171.601 67.5996V68.3994C185.4 73.7994 194.4 84.8001 194.4 102C194.4 127.713 177.514 143.69 147.702 143.797L135.829 120.2H141.4C156.2 120.2 163.8 112.8 163.8 100.8C163.8 88.5999 156.2 81.2003 141.4 81.2002H116.205L105.638 60.2002H138.8C152.4 60.2002 159.6 53.4 159.601 42.2002C159.601 31.0002 152.4 24.3994 138.8 24.3994H105.601V60.126L76 1.2998L75.5996 2.06348V1H144.601Z" fill="black"/>
<path d="M30.6699 55.8995C13.3181 78.8851 16.0078 101.214 34.524 115.192C45.059 123.145 56.4174 123.7 67.5565 117.575L68.1948 118.057C64.1902 132.324 67.5475 146.135 81.275 156.498C101.797 171.991 124.722 168.139 142.77 144.411L131.09 120.717L127.734 125.164C118.817 136.976 108.331 138.582 98.7541 131.352C89.0172 124.002 87.6902 113.478 96.6071 101.666L111.787 81.5575L101.394 60.4709L81.4135 86.9381C73.2195 97.7924 63.4537 99.4423 54.5149 92.6945C45.576 85.9464 44.6463 76.2224 52.8403 65.368L72.843 38.8712L101.357 60.3966L72.2413 1.32888L73.0899 1.46904L72.2427 0.829468L30.6699 55.8995Z" fill="black" fill-opacity="0.15"/>
</svg>
